<svg xmlns="http://www.w3.org/2000/svg" xmlns:xlink="http://www.w3.org/1999/xlink" width="500" zoomAndPan="magnify" viewBox="0 0 375 374.999991" height="500" preserveAspectRatio="xMidYMid meet" version="1.0"><defs><clipPath id="355f3ec465"><path d="M 52 53 L 323 53 L 323 322.980469 L 52 322.980469 Z M 52 53 " clip-rule="nonzero"/></clipPath><clipPath id="688abc92b6"><path d="M 93 144 L 199 144 L 199 265 L 93 265 Z M 93 144 " clip-rule="nonzero"/></clipPath><clipPath id="daf71fc680"><path d="M 96.59375 125.167969 L 198.699219 149.648438 L 171.070312 264.882812 L 68.964844 240.402344 Z M 96.59375 125.167969 " clip-rule="nonzero"/></clipPath><clipPath id="851e636aad"><path d="M -489.734375 -347.046875 L 548.832031 -98.042969 L 299.828125 940.523438 L -738.738281 691.519531 Z M -489.734375 -347.046875 " clip-rule="nonzero"/></clipPath></defs><rect x="-37.5" width="450" fill="#ffffff" y="-37.499999" height="449.999989" fill-opacity="1"/><rect x="-37.5" width="450" fill="#2b2b2b" y="-37.499999" height="449.999989" fill-opacity="1"/><g clip-path="url(#355f3ec465)"><path fill="#ffffff" d="M 128.390625 54.09375 C 119.070312 55.101562 112.015625 57.089844 104.617188 60.796875 C 94.597656 65.816406 85.386719 73.628906 79.644531 81.976562 C 75.917969 87.390625 73.105469 93.832031 71.707031 100.140625 C 69.90625 108.261719 69.683594 116.605469 71.082031 123.347656 C 74.199219 138.371094 84.703125 151.636719 101.332031 161.542969 C 103.226562 162.675781 107.667969 165.050781 109.253906 165.785156 C 109.890625 166.082031 112.0625 167.125 114.082031 168.109375 C 116.097656 169.089844 119.234375 170.578125 121.050781 171.410156 C 132.785156 176.789062 137.628906 179.382812 143.25 183.296875 C 148.378906 186.875 150.734375 189.671875 151.992188 193.699219 C 152.371094 194.914062 152.421875 195.4375 152.421875 198.195312 C 152.421875 200.539062 152.339844 201.652344 152.097656 202.6875 C 150.199219 210.703125 143.886719 215.375 132.722656 217.015625 C 129.464844 217.496094 122.652344 217.691406 120.113281 217.375 C 115.027344 216.742188 109.871094 215.253906 104.175781 212.773438 C 99.554688 210.761719 90.210938 205.894531 86.289062 203.460938 C 84.53125 202.371094 78.894531 198.242188 76.355469 196.191406 C 75.578125 195.558594 75.277344 195.410156 75.144531 195.582031 C 75.046875 195.707031 73.496094 198.285156 71.703125 201.3125 C 69.910156 204.339844 67.0625 209.128906 65.378906 211.953125 C 62.992188 215.957031 60.609375 219.960938 58.226562 223.96875 C 56.652344 226.617188 55.078125 229.265625 53.5 231.914062 C 53.148438 232.5 52.890625 233 52.925781 233.023438 C 52.960938 233.050781 53.734375 233.695312 54.640625 234.457031 C 59.394531 238.445312 64.671875 241.65625 75.371094 247.078125 C 82.703125 250.792969 86.378906 252.28125 92.800781 254.140625 C 116.898438 261.109375 144.695312 260.433594 164.5625 252.386719 C 178.09375 246.90625 187.222656 239.589844 193.21875 229.40625 C 197.585938 221.988281 200.011719 214.453125 201.253906 204.429688 C 201.71875 200.683594 201.71875 191.457031 201.253906 188.703125 C 199.621094 179.003906 195.515625 171.175781 188.035156 163.484375 C 181.875 157.148438 175.25 151.933594 167.738281 147.511719 C 164.773438 145.765625 157.589844 142.21875 153.15625 140.316406 C 141.429688 135.28125 134.054688 131.796875 128.296875 128.5625 C 116.726562 122.066406 113.238281 117.542969 114.164062 110.230469 C 114.617188 106.644531 116.007812 103.6875 118.441406 101.128906 C 122.632812 96.726562 128.890625 94.636719 137.882812 94.636719 C 144.351562 94.636719 150.3125 95.855469 158.382812 98.824219 C 166.699219 101.882812 169.503906 103.15625 174.289062 106.03125 C 177.539062 107.984375 177.714844 108.066406 177.960938 107.734375 C 178.105469 107.542969 179.300781 105.238281 180.617188 102.617188 C 181.933594 99.992188 183.070312 97.761719 183.144531 97.664062 C 183.21875 97.5625 185.40625 93.269531 188.007812 88.125 C 190.609375 82.976562 193.4375 77.421875 194.289062 75.78125 C 195.144531 74.136719 195.800781 72.683594 195.75 72.550781 C 195.585938 72.121094 188.273438 67.375 185.902344 66.15625 C 180.855469 63.566406 174.46875 61.125 165.90625 58.519531 C 158.914062 56.394531 152.019531 55.015625 144.625 54.265625 C 142.136719 54.011719 130.296875 53.886719 128.390625 54.09375 M 189.9375 134.707031 C 189.9375 134.851562 190.207031 135.15625 190.535156 135.386719 C 193.503906 137.464844 199.289062 142.527344 203.503906 146.742188 C 214.550781 157.773438 221.242188 170.257812 223.597656 184.222656 C 224.253906 188.105469 224.460938 190.929688 224.453125 195.824219 C 224.433594 213.195312 220.578125 227.953125 212.535156 241.488281 C 207.238281 250.394531 199.988281 258.035156 191.175781 263.988281 L 189.570312 265.070312 L 189.570312 323.214844 L 242.039062 323.214844 L 242.039062 272.03125 L 316.335938 272.03125 L 316.335938 226.171875 L 242.039062 226.171875 L 242.039062 180.308594 L 322.574219 180.308594 L 322.574219 134.445312 L 256.253906 134.445312 C 198.832031 134.445312 189.9375 134.480469 189.9375 134.707031 " fill-opacity="1" fill-rule="evenodd"/></g><g clip-path="url(#688abc92b6)"><g clip-path="url(#daf71fc680)"><g clip-path="url(#851e636aad)"><path fill="#2b2b2b" d="M 149.5625 145.683594 C 148.710938 146.320312 143.914062 153.496094 138.902344 161.632812 L 129.792969 176.417969 L 112.277344 173.414062 C 102.644531 171.761719 94.632812 170.445312 94.472656 170.488281 C 94.316406 170.53125 93.9375 171.613281 93.628906 172.890625 C 93.207031 174.648438 94.867188 177.328125 100.394531 183.820312 C 104.425781 188.550781 108.941406 193.859375 110.4375 195.621094 C 113.972656 199.78125 113.597656 201.148438 104.269531 218.023438 C 100.101562 225.558594 96.757812 232.566406 96.832031 233.605469 C 96.90625 234.640625 97.828125 236.003906 98.875 236.636719 C 100.332031 237.515625 104.15625 236.285156 115.074219 231.429688 C 122.933594 227.933594 130.054688 224.980469 130.898438 224.867188 C 131.761719 224.753906 137.082031 230.269531 143.050781 237.464844 C 148.890625 244.503906 154.03125 250.351562 154.476562 250.457031 C 155.933594 250.808594 159.136719 248.328125 159.011719 246.953125 C 158.035156 236.523438 157.328125 215.933594 157.871094 213.679688 C 158.484375 211.113281 160.390625 209.949219 172.953125 204.46875 C 193.605469 195.457031 193.359375 193.269531 171.109375 187.933594 C 154.453125 183.941406 155.464844 185.488281 155.191406 163.621094 C 155.082031 155.101562 154.695312 147.457031 154.328125 146.632812 C 153.445312 144.644531 151.476562 144.25 149.5625 145.683594 M 241.074219 177 C 239.746094 177.289062 237.808594 178.605469 236.773438 179.917969 C 232.195312 185.722656 185.636719 256.230469 169.210938 282.226562 C 165.542969 288.039062 165.269531 288.847656 166.0625 291.664062 C 167.054688 295.191406 172.175781 297.609375 175.34375 296.050781 C 177.882812 294.800781 205.855469 271.988281 226.003906 254.734375 C 255.851562 229.175781 277.09375 208.59375 278.144531 204.210938 C 278.457031 202.902344 278.347656 200.328125 277.894531 198.496094 C 277.15625 195.507812 275.542969 194.238281 262.273438 186.222656 C 246.851562 176.902344 245.066406 176.125 241.074219 177 M 319.558594 253.132812 C 286.679688 263.570312 242.109375 284.710938 210.6875 304.777344 C 195.714844 314.339844 193.191406 316.84375 194.289062 321.039062 C 195.699219 326.429688 197.96875 326.261719 232.296875 318.234375 C 262.175781 311.25 291.613281 306.113281 318.789062 303.144531 C 332.554688 301.640625 333.890625 301.253906 336.152344 298.136719 C 337.808594 295.855469 338 293.625 337.539062 281.71875 C 337.246094 274.140625 336.976562 265.757812 336.941406 263.09375 C 336.789062 252.527344 331.332031 249.398438 319.558594 253.136719 " fill-opacity="1" fill-rule="evenodd"/></g></g></g></svg>