<svg xmlns="http://www.w3.org/2000/svg" xmlns:xlink="http://www.w3.org/1999/xlink" width="500" zoomAndPan="magnify" viewBox="0 0 375 374.999991" height="500" preserveAspectRatio="xMidYMid meet" version="1.0"><defs><g/><clipPath id="89315d1c14"><path d="M 28.457031 245.390625 L 42.707031 245.390625 L 42.707031 259.640625 L 28.457031 259.640625 Z M 28.457031 245.390625 " clip-rule="nonzero"/></clipPath><clipPath id="eef9936e5a"><path d="M 39.488281 264.394531 L 48.488281 264.394531 L 48.488281 273.394531 L 39.488281 273.394531 Z M 39.488281 264.394531 " clip-rule="nonzero"/></clipPath><clipPath id="4588965c1a"><path d="M 336.941406 103.632812 L 347.441406 103.632812 L 347.441406 114.132812 L 336.941406 114.132812 Z M 336.941406 103.632812 " clip-rule="nonzero"/></clipPath><clipPath id="a9740e221d"><path d="M 322.949219 120.214844 L 337 120.214844 L 337 134.464844 L 322.949219 134.464844 Z M 322.949219 120.214844 " clip-rule="nonzero"/></clipPath></defs><g clip-path="url(#89315d1c14)"><path fill="#ffffff" d="M 41.238281 253.503906 L 42.964844 252.640625 L 41.238281 251.777344 C 39.21875 250.769531 37.582031 249.132812 36.574219 247.117188 L 35.710938 245.386719 L 34.847656 247.117188 C 33.839844 249.132812 32.203125 250.769531 30.183594 251.777344 L 28.457031 252.640625 L 30.183594 253.503906 C 32.203125 254.515625 33.839844 256.148438 34.847656 258.167969 L 35.710938 259.894531 L 36.574219 258.167969 C 37.582031 256.148438 39.21875 254.515625 41.238281 253.503906 Z M 41.238281 253.503906 " fill-opacity="1" fill-rule="nonzero"/></g><g clip-path="url(#eef9936e5a)"><path fill="#ffffff" d="M 47.683594 269.597656 L 48.789062 269.046875 L 47.683594 268.492188 C 46.390625 267.84375 45.339844 266.796875 44.691406 265.5 L 44.136719 264.394531 L 43.585938 265.5 C 42.9375 266.796875 41.886719 267.84375 40.59375 268.492188 L 39.488281 269.046875 L 40.59375 269.597656 C 41.886719 270.246094 42.9375 271.296875 43.585938 272.589844 L 44.136719 273.699219 L 44.691406 272.589844 C 45.339844 271.296875 46.390625 270.246094 47.683594 269.597656 Z M 47.683594 269.597656 " fill-opacity="1" fill-rule="nonzero"/></g><g clip-path="url(#4588965c1a)"><path fill="#ffffff" d="M 346.179688 109.5 L 347.429688 108.875 L 346.179688 108.25 C 344.722656 107.519531 343.539062 106.339844 342.808594 104.878906 L 342.183594 103.632812 L 341.5625 104.878906 C 340.832031 106.339844 339.648438 107.519531 338.191406 108.25 L 336.941406 108.875 L 338.191406 109.5 C 339.648438 110.230469 340.832031 111.410156 341.5625 112.871094 L 342.183594 114.117188 L 342.808594 112.871094 C 343.539062 111.410156 344.722656 110.230469 346.179688 109.5 Z M 346.179688 109.5 " fill-opacity="1" fill-rule="nonzero"/></g><g clip-path="url(#a9740e221d)"><path fill="#ffffff" d="M 335.273438 128.039062 L 336.9375 127.207031 L 335.273438 126.375 C 333.328125 125.402344 331.75 123.824219 330.777344 121.878906 L 329.941406 120.210938 L 329.109375 121.878906 C 328.136719 123.824219 326.558594 125.402344 324.613281 126.375 L 322.949219 127.207031 L 324.613281 128.039062 C 326.558594 129.015625 328.136719 130.589844 329.109375 132.539062 L 329.941406 134.203125 L 330.777344 132.539062 C 331.75 130.589844 333.328125 129.015625 335.273438 128.039062 Z M 335.273438 128.039062 " fill-opacity="1" fill-rule="nonzero"/></g><g fill="#ffffff" fill-opacity="1"><g transform="translate(30.240592, 195.133214)"><g><path d="M 20.234375 -46.703125 C 22.710938 -46.703125 25.140625 -46.335938 27.515625 -45.609375 C 29.890625 -44.890625 31.648438 -44.175781 32.796875 -43.46875 L 34.46875 -42.359375 L 30.25 -34.015625 C 29.914062 -34.242188 29.453125 -34.53125 28.859375 -34.875 C 28.265625 -35.226562 27.148438 -35.703125 25.515625 -36.296875 C 23.890625 -36.890625 22.367188 -37.1875 20.953125 -37.1875 C 19.210938 -37.1875 17.867188 -36.816406 16.921875 -36.078125 C 15.984375 -35.335938 15.515625 -34.335938 15.515625 -33.078125 C 15.515625 -32.453125 15.734375 -31.867188 16.171875 -31.328125 C 16.617188 -30.785156 17.378906 -30.207031 18.453125 -29.59375 C 19.523438 -28.988281 20.46875 -28.5 21.28125 -28.125 C 22.101562 -27.757812 23.367188 -27.207031 25.078125 -26.46875 C 28.035156 -25.207031 30.5625 -23.488281 32.65625 -21.3125 C 34.75 -19.144531 35.796875 -16.691406 35.796875 -13.953125 C 35.796875 -11.316406 35.320312 -9.015625 34.375 -7.046875 C 33.4375 -5.085938 32.140625 -3.550781 30.484375 -2.4375 C 28.835938 -1.332031 27.015625 -0.515625 25.015625 0.015625 C 23.015625 0.554688 20.847656 0.828125 18.515625 0.828125 C 16.515625 0.828125 14.550781 0.625 12.625 0.21875 C 10.695312 -0.1875 9.082031 -0.691406 7.78125 -1.296875 C 6.488281 -1.910156 5.320312 -2.515625 4.28125 -3.109375 C 3.238281 -3.703125 2.476562 -4.203125 2 -4.609375 L 1.28125 -5.21875 L 6.5 -14.015625 C 6.945312 -13.640625 7.554688 -13.164062 8.328125 -12.59375 C 9.109375 -12.019531 10.488281 -11.25 12.46875 -10.28125 C 14.457031 -9.320312 16.210938 -8.84375 17.734375 -8.84375 C 22.140625 -8.84375 24.34375 -10.34375 24.34375 -13.34375 C 24.34375 -13.96875 24.1875 -14.550781 23.875 -15.09375 C 23.5625 -15.632812 23.003906 -16.171875 22.203125 -16.703125 C 21.410156 -17.242188 20.707031 -17.671875 20.09375 -17.984375 C 19.488281 -18.296875 18.488281 -18.773438 17.09375 -19.421875 C 15.707031 -20.078125 14.679688 -20.570312 14.015625 -20.90625 C 11.234375 -22.269531 9.082031 -23.976562 7.5625 -26.03125 C 6.039062 -28.09375 5.28125 -30.3125 5.28125 -32.6875 C 5.28125 -36.800781 6.800781 -40.164062 9.84375 -42.78125 C 12.882812 -45.394531 16.347656 -46.703125 20.234375 -46.703125 Z M 20.234375 -46.703125 "/></g></g></g><g fill="#ffffff" fill-opacity="1"><g transform="translate(62.373231, 195.133214)"><g><path d="M 5 -28.515625 L 5 -39.140625 L 14.84375 -39.140625 L 14.84375 -28.515625 L 20.84375 -28.515625 L 20.84375 -21.015625 L 14.84375 -21.015625 L 14.84375 -11.953125 C 14.84375 -9.316406 15.582031 -8 17.0625 -8 C 17.4375 -8 17.828125 -8.070312 18.234375 -8.21875 C 18.640625 -8.375 18.957031 -8.523438 19.1875 -8.671875 L 19.515625 -8.890625 L 21.953125 -0.9375 C 19.847656 0.238281 17.441406 0.828125 14.734375 0.828125 C 12.878906 0.828125 11.285156 0.503906 9.953125 -0.140625 C 8.617188 -0.785156 7.609375 -1.65625 6.921875 -2.75 C 6.234375 -3.84375 5.738281 -4.988281 5.4375 -6.1875 C 5.144531 -7.394531 5 -8.6875 5 -10.0625 L 5 -21.015625 L 0.890625 -21.015625 L 0.890625 -28.515625 Z M 5 -28.515625 "/></g></g></g><g fill="#ffffff" fill-opacity="1"><g transform="translate(79.10638, 195.133214)"><g><path d="M 3.328125 0 L 3.328125 -28.515625 L 13.171875 -28.515625 L 13.171875 -24.40625 L 13.28125 -24.40625 C 13.351562 -24.550781 13.472656 -24.734375 13.640625 -24.953125 C 13.804688 -25.179688 14.164062 -25.570312 14.71875 -26.125 C 15.28125 -26.6875 15.875 -27.1875 16.5 -27.625 C 17.132812 -28.070312 17.953125 -28.472656 18.953125 -28.828125 C 19.953125 -29.179688 20.972656 -29.359375 22.015625 -29.359375 C 23.085938 -29.359375 24.140625 -29.207031 25.171875 -28.90625 C 26.210938 -28.613281 26.976562 -28.316406 27.46875 -28.015625 L 28.234375 -27.578125 L 24.125 -19.234375 C 22.90625 -20.273438 21.203125 -20.796875 19.015625 -20.796875 C 17.828125 -20.796875 16.804688 -20.535156 15.953125 -20.015625 C 15.097656 -19.492188 14.492188 -18.863281 14.140625 -18.125 C 13.796875 -17.382812 13.546875 -16.753906 13.390625 -16.234375 C 13.242188 -15.710938 13.171875 -15.304688 13.171875 -15.015625 L 13.171875 0 Z M 3.328125 0 "/></g></g></g><g fill="#ffffff" fill-opacity="1"><g transform="translate(101.565695, 195.133214)"><g><path d="M 32.1875 -12.890625 L 11.515625 -12.890625 C 11.515625 -10.890625 12.160156 -9.40625 13.453125 -8.4375 C 14.753906 -7.476562 16.160156 -7 17.671875 -7 C 19.265625 -7 20.523438 -7.210938 21.453125 -7.640625 C 22.378906 -8.066406 23.4375 -8.910156 24.625 -10.171875 L 31.75 -6.609375 C 28.78125 -1.648438 23.847656 0.828125 16.953125 0.828125 C 12.648438 0.828125 8.960938 -0.640625 5.890625 -3.578125 C 2.816406 -6.523438 1.28125 -10.070312 1.28125 -14.21875 C 1.28125 -18.375 2.816406 -21.9375 5.890625 -24.90625 C 8.960938 -27.875 12.648438 -29.359375 16.953125 -29.359375 C 21.472656 -29.359375 25.148438 -28.050781 27.984375 -25.4375 C 30.828125 -22.820312 32.25 -19.085938 32.25 -14.234375 C 32.25 -13.566406 32.226562 -13.117188 32.1875 -12.890625 Z M 11.78125 -18.34375 L 22.625 -18.34375 C 22.40625 -19.820312 21.820312 -20.957031 20.875 -21.75 C 19.925781 -22.550781 18.710938 -22.953125 17.234375 -22.953125 C 15.597656 -22.953125 14.296875 -22.523438 13.328125 -21.671875 C 12.367188 -20.828125 11.851562 -19.71875 11.78125 -18.34375 Z M 11.78125 -18.34375 "/></g></g></g><g fill="#ffffff" fill-opacity="1"><g transform="translate(129.862354, 195.133214)"><g><path d="M 32.1875 -12.890625 L 11.515625 -12.890625 C 11.515625 -10.890625 12.160156 -9.40625 13.453125 -8.4375 C 14.753906 -7.476562 16.160156 -7 17.671875 -7 C 19.265625 -7 20.523438 -7.210938 21.453125 -7.640625 C 22.378906 -8.066406 23.4375 -8.910156 24.625 -10.171875 L 31.75 -6.609375 C 28.78125 -1.648438 23.847656 0.828125 16.953125 0.828125 C 12.648438 0.828125 8.960938 -0.640625 5.890625 -3.578125 C 2.816406 -6.523438 1.28125 -10.070312 1.28125 -14.21875 C 1.28125 -18.375 2.816406 -21.9375 5.890625 -24.90625 C 8.960938 -27.875 12.648438 -29.359375 16.953125 -29.359375 C 21.472656 -29.359375 25.148438 -28.050781 27.984375 -25.4375 C 30.828125 -22.820312 32.25 -19.085938 32.25 -14.234375 C 32.25 -13.566406 32.226562 -13.117188 32.1875 -12.890625 Z M 11.78125 -18.34375 L 22.625 -18.34375 C 22.40625 -19.820312 21.820312 -20.957031 20.875 -21.75 C 19.925781 -22.550781 18.710938 -22.953125 17.234375 -22.953125 C 15.597656 -22.953125 14.296875 -22.523438 13.328125 -21.671875 C 12.367188 -20.828125 11.851562 -19.71875 11.78125 -18.34375 Z M 11.78125 -18.34375 "/></g></g></g><g fill="#ffffff" fill-opacity="1"><g transform="translate(158.159014, 195.133214)"><g><path d="M 5 -28.515625 L 5 -39.140625 L 14.84375 -39.140625 L 14.84375 -28.515625 L 20.84375 -28.515625 L 20.84375 -21.015625 L 14.84375 -21.015625 L 14.84375 -11.953125 C 14.84375 -9.316406 15.582031 -8 17.0625 -8 C 17.4375 -8 17.828125 -8.070312 18.234375 -8.21875 C 18.640625 -8.375 18.957031 -8.523438 19.1875 -8.671875 L 19.515625 -8.890625 L 21.953125 -0.9375 C 19.847656 0.238281 17.441406 0.828125 14.734375 0.828125 C 12.878906 0.828125 11.285156 0.503906 9.953125 -0.140625 C 8.617188 -0.785156 7.609375 -1.65625 6.921875 -2.75 C 6.234375 -3.84375 5.738281 -4.988281 5.4375 -6.1875 C 5.144531 -7.394531 5 -8.6875 5 -10.0625 L 5 -21.015625 L 0.890625 -21.015625 L 0.890625 -28.515625 Z M 5 -28.515625 "/></g></g></g><g fill="#ffffff" fill-opacity="1"><g transform="translate(174.892163, 195.133214)"><g><path d="M 29.859375 -45.859375 L 29.859375 -36.6875 L 13.78125 -36.6875 L 13.78125 -27.578125 L 28.625 -27.578125 L 28.625 -18.40625 L 13.78125 -18.40625 L 13.78125 0 L 3.328125 0 L 3.328125 -45.859375 Z M 29.859375 -45.859375 "/></g></g></g><g fill="#ffffff" fill-opacity="1"><g transform="translate(201.187446, 195.133214)"><g><path d="M 3.328125 0 L 3.328125 -28.515625 L 13.171875 -28.515625 L 13.171875 -24.40625 L 13.28125 -24.40625 C 13.351562 -24.550781 13.472656 -24.734375 13.640625 -24.953125 C 13.804688 -25.179688 14.164062 -25.570312 14.71875 -26.125 C 15.28125 -26.6875 15.875 -27.1875 16.5 -27.625 C 17.132812 -28.070312 17.953125 -28.472656 18.953125 -28.828125 C 19.953125 -29.179688 20.972656 -29.359375 22.015625 -29.359375 C 23.085938 -29.359375 24.140625 -29.207031 25.171875 -28.90625 C 26.210938 -28.613281 26.976562 -28.316406 27.46875 -28.015625 L 28.234375 -27.578125 L 24.125 -19.234375 C 22.90625 -20.273438 21.203125 -20.796875 19.015625 -20.796875 C 17.828125 -20.796875 16.804688 -20.535156 15.953125 -20.015625 C 15.097656 -19.492188 14.492188 -18.863281 14.140625 -18.125 C 13.796875 -17.382812 13.546875 -16.753906 13.390625 -16.234375 C 13.242188 -15.710938 13.171875 -15.304688 13.171875 -15.015625 L 13.171875 0 Z M 3.328125 0 "/></g></g></g><g fill="#ffffff" fill-opacity="1"><g transform="translate(223.64676, 195.133214)"><g><path d="M 32.1875 -12.890625 L 11.515625 -12.890625 C 11.515625 -10.890625 12.160156 -9.40625 13.453125 -8.4375 C 14.753906 -7.476562 16.160156 -7 17.671875 -7 C 19.265625 -7 20.523438 -7.210938 21.453125 -7.640625 C 22.378906 -8.066406 23.4375 -8.910156 24.625 -10.171875 L 31.75 -6.609375 C 28.78125 -1.648438 23.847656 0.828125 16.953125 0.828125 C 12.648438 0.828125 8.960938 -0.640625 5.890625 -3.578125 C 2.816406 -6.523438 1.28125 -10.070312 1.28125 -14.21875 C 1.28125 -18.375 2.816406 -21.9375 5.890625 -24.90625 C 8.960938 -27.875 12.648438 -29.359375 16.953125 -29.359375 C 21.472656 -29.359375 25.148438 -28.050781 27.984375 -25.4375 C 30.828125 -22.820312 32.25 -19.085938 32.25 -14.234375 C 32.25 -13.566406 32.226562 -13.117188 32.1875 -12.890625 Z M 11.78125 -18.34375 L 22.625 -18.34375 C 22.40625 -19.820312 21.820312 -20.957031 20.875 -21.75 C 19.925781 -22.550781 18.710938 -22.953125 17.234375 -22.953125 C 15.597656 -22.953125 14.296875 -22.523438 13.328125 -21.671875 C 12.367188 -20.828125 11.851562 -19.71875 11.78125 -18.34375 Z M 11.78125 -18.34375 "/></g></g></g><g fill="#ffffff" fill-opacity="1"><g transform="translate(251.94342, 195.133214)"><g><path d="M 5.28125 -3.53125 C 2.613281 -6.4375 1.28125 -10 1.28125 -14.21875 C 1.28125 -18.445312 2.613281 -22.023438 5.28125 -24.953125 C 7.945312 -27.890625 11.335938 -29.359375 15.453125 -29.359375 C 19.234375 -29.359375 22.347656 -28.171875 24.796875 -25.796875 L 24.796875 -28.515625 L 34.640625 -28.515625 L 34.640625 0 L 24.90625 0 L 24.90625 -3.21875 L 24.796875 -3.21875 C 22.347656 -0.519531 19.234375 0.828125 15.453125 0.828125 C 11.335938 0.828125 7.945312 -0.625 5.28125 -3.53125 Z M 13.640625 -19.0625 C 12.367188 -17.800781 11.734375 -16.1875 11.734375 -14.21875 C 11.734375 -12.257812 12.34375 -10.660156 13.5625 -9.421875 C 14.789062 -8.179688 16.40625 -7.5625 18.40625 -7.5625 C 20.332031 -7.5625 21.914062 -8.191406 23.15625 -9.453125 C 24.394531 -10.710938 25.015625 -12.304688 25.015625 -14.234375 C 25.015625 -16.191406 24.375 -17.800781 23.09375 -19.0625 C 21.820312 -20.320312 20.257812 -20.953125 18.40625 -20.953125 C 16.507812 -20.953125 14.921875 -20.320312 13.640625 -19.0625 Z M 13.640625 -19.0625 "/></g></g></g><g fill="#ffffff" fill-opacity="1"><g transform="translate(284.687597, 195.133214)"><g><path d="M 35.90625 -28.515625 L 22.34375 -14.90625 L 37.25 0 L 24.578125 0 L 13.171875 -11.390625 L 13.171875 0 L 3.328125 0 L 3.328125 -47.8125 L 13.171875 -47.8125 L 13.171875 -18.5625 L 23.125 -28.515625 Z M 35.90625 -28.515625 "/></g></g></g><g fill="#ffffff" fill-opacity="1"><g transform="translate(315.37479, 195.133214)"><g/></g></g><g fill="#ffffff" fill-opacity="1"><g transform="translate(325.325496, 195.133214)"><g><path d="M 9.671875 -11.890625 C 11.453125 -11.890625 12.960938 -11.269531 14.203125 -10.03125 C 15.441406 -8.789062 16.0625 -7.28125 16.0625 -5.5 C 16.0625 -3.757812 15.441406 -2.269531 14.203125 -1.03125 C 12.960938 0.207031 11.453125 0.828125 9.671875 0.828125 C 7.929688 0.828125 6.4375 0.207031 5.1875 -1.03125 C 3.945312 -2.269531 3.328125 -3.757812 3.328125 -5.5 C 3.328125 -7.28125 3.945312 -8.789062 5.1875 -10.03125 C 6.4375 -11.269531 7.929688 -11.890625 9.671875 -11.890625 Z M 9.671875 -11.890625 "/></g></g></g><g fill="#ffffff" fill-opacity="1"><g transform="translate(74.332338, 221.574684)"><g><path d="M 13.3125 -22.9375 L 22.578125 0 L 16.953125 0 L 15.265625 -4.59375 L 6.53125 -4.59375 L 4.84375 0 L -0.78125 0 L 8.484375 -22.9375 Z M 13.484375 -9.171875 L 10.921875 -15.84375 L 10.875 -15.84375 L 8.3125 -9.171875 Z M 13.484375 -9.171875 "/></g></g></g><g fill="#ffffff" fill-opacity="1"><g transform="translate(93.502724, 221.574684)"><g><path d="M 7.859375 -14.671875 C 8.679688 -14.671875 9.488281 -14.578125 10.28125 -14.390625 C 11.082031 -14.210938 11.675781 -14.03125 12.0625 -13.84375 L 12.640625 -13.5625 L 11.03125 -10.34375 C 9.925781 -10.9375 8.867188 -11.234375 7.859375 -11.234375 C 7.304688 -11.234375 6.914062 -11.171875 6.6875 -11.046875 C 6.457031 -10.929688 6.34375 -10.707031 6.34375 -10.375 C 6.34375 -10.289062 6.347656 -10.210938 6.359375 -10.140625 C 6.378906 -10.066406 6.414062 -10 6.46875 -9.9375 C 6.53125 -9.875 6.582031 -9.816406 6.625 -9.765625 C 6.675781 -9.722656 6.753906 -9.671875 6.859375 -9.609375 C 6.972656 -9.554688 7.0625 -9.515625 7.125 -9.484375 C 7.195312 -9.460938 7.304688 -9.421875 7.453125 -9.359375 C 7.597656 -9.304688 7.707031 -9.265625 7.78125 -9.234375 C 7.851562 -9.210938 7.976562 -9.171875 8.15625 -9.109375 C 8.332031 -9.054688 8.46875 -9.019531 8.5625 -9 C 9.132812 -8.832031 9.632812 -8.644531 10.0625 -8.4375 C 10.488281 -8.238281 10.9375 -7.960938 11.40625 -7.609375 C 11.882812 -7.265625 12.25 -6.820312 12.5 -6.28125 C 12.757812 -5.738281 12.890625 -5.128906 12.890625 -4.453125 C 12.890625 -1.203125 10.640625 0.421875 6.140625 0.421875 C 5.117188 0.421875 4.148438 0.265625 3.234375 -0.046875 C 2.316406 -0.367188 1.65625 -0.6875 1.25 -1 L 0.640625 -1.5 L 2.640625 -4.859375 C 2.785156 -4.734375 2.976562 -4.582031 3.21875 -4.40625 C 3.457031 -4.226562 3.890625 -3.984375 4.515625 -3.671875 C 5.148438 -3.367188 5.703125 -3.21875 6.171875 -3.21875 C 7.191406 -3.21875 7.703125 -3.5625 7.703125 -4.25 C 7.703125 -4.5625 7.570312 -4.804688 7.3125 -4.984375 C 7.050781 -5.160156 6.609375 -5.359375 5.984375 -5.578125 C 5.367188 -5.804688 4.882812 -6.015625 4.53125 -6.203125 C 3.644531 -6.660156 2.941406 -7.179688 2.421875 -7.765625 C 1.898438 -8.347656 1.640625 -9.125 1.640625 -10.09375 C 1.640625 -11.539062 2.195312 -12.664062 3.3125 -13.46875 C 4.4375 -14.269531 5.953125 -14.671875 7.859375 -14.671875 Z M 7.859375 -14.671875 "/></g></g></g><g fill="#ffffff" fill-opacity="1"><g transform="translate(104.559833, 221.574684)"><g/></g></g><g fill="#ffffff" fill-opacity="1"><g transform="translate(109.531982, 221.574684)"><g><path d="M 2.640625 -1.765625 C 1.304688 -3.222656 0.640625 -5.003906 0.640625 -7.109375 C 0.640625 -9.222656 1.304688 -11.007812 2.640625 -12.46875 C 3.972656 -13.9375 5.671875 -14.671875 7.734375 -14.671875 C 9.617188 -14.671875 11.171875 -14.078125 12.390625 -12.890625 L 12.390625 -14.265625 L 17.3125 -14.265625 L 17.3125 0 L 12.453125 0 L 12.453125 -1.609375 L 12.390625 -1.609375 C 11.171875 -0.253906 9.617188 0.421875 7.734375 0.421875 C 5.671875 0.421875 3.972656 -0.304688 2.640625 -1.765625 Z M 6.8125 -9.53125 C 6.175781 -8.90625 5.859375 -8.097656 5.859375 -7.109375 C 5.859375 -6.128906 6.164062 -5.328125 6.78125 -4.703125 C 7.394531 -4.085938 8.203125 -3.78125 9.203125 -3.78125 C 10.160156 -3.78125 10.953125 -4.09375 11.578125 -4.71875 C 12.203125 -5.351562 12.515625 -6.148438 12.515625 -7.109375 C 12.515625 -8.097656 12.191406 -8.90625 11.546875 -9.53125 C 10.910156 -10.164062 10.128906 -10.484375 9.203125 -10.484375 C 8.253906 -10.484375 7.457031 -10.164062 6.8125 -9.53125 Z M 6.8125 -9.53125 "/></g></g></g><g fill="#ffffff" fill-opacity="1"><g transform="translate(125.896059, 221.574684)"><g/></g></g><g fill="#ffffff" fill-opacity="1"><g transform="translate(130.868208, 221.574684)"><g><path d="M 20.625 0 L 19.546875 -13.59375 L 19.40625 -13.59375 L 14.703125 -0.140625 L 11.59375 -0.140625 L 6.890625 -13.59375 L 6.75 -13.59375 L 5.671875 0 L 0.4375 0 L 2.5 -22.9375 L 8.0625 -22.9375 L 13.140625 -9.703125 L 18.234375 -22.9375 L 23.796875 -22.9375 L 25.84375 0 Z M 20.625 0 "/></g></g></g><g fill="#ffffff" fill-opacity="1"><g transform="translate(154.539783, 221.574684)"><g><path d="M 2.640625 -1.765625 C 1.304688 -3.222656 0.640625 -5.003906 0.640625 -7.109375 C 0.640625 -9.222656 1.304688 -11.007812 2.640625 -12.46875 C 3.972656 -13.9375 5.671875 -14.671875 7.734375 -14.671875 C 9.617188 -14.671875 11.171875 -14.078125 12.390625 -12.890625 L 12.390625 -14.265625 L 17.3125 -14.265625 L 17.3125 0 L 12.453125 0 L 12.453125 -1.609375 L 12.390625 -1.609375 C 11.171875 -0.253906 9.617188 0.421875 7.734375 0.421875 C 5.671875 0.421875 3.972656 -0.304688 2.640625 -1.765625 Z M 6.8125 -9.53125 C 6.175781 -8.90625 5.859375 -8.097656 5.859375 -7.109375 C 5.859375 -6.128906 6.164062 -5.328125 6.78125 -4.703125 C 7.394531 -4.085938 8.203125 -3.78125 9.203125 -3.78125 C 10.160156 -3.78125 10.953125 -4.09375 11.578125 -4.71875 C 12.203125 -5.351562 12.515625 -6.148438 12.515625 -7.109375 C 12.515625 -8.097656 12.191406 -8.90625 11.546875 -9.53125 C 10.910156 -10.164062 10.128906 -10.484375 9.203125 -10.484375 C 8.253906 -10.484375 7.457031 -10.164062 6.8125 -9.53125 Z M 6.8125 -9.53125 "/></g></g></g><g fill="#ffffff" fill-opacity="1"><g transform="translate(170.903861, 221.574684)"><g><path d="M 1.671875 0 L 1.671875 -14.265625 L 6.59375 -14.265625 L 6.59375 -12.765625 L 6.640625 -12.765625 C 7.921875 -14.035156 9.285156 -14.671875 10.734375 -14.671875 C 11.429688 -14.671875 12.128906 -14.578125 12.828125 -14.390625 C 13.523438 -14.210938 14.191406 -13.925781 14.828125 -13.53125 C 15.460938 -13.144531 15.976562 -12.59375 16.375 -11.875 C 16.78125 -11.164062 16.984375 -10.335938 16.984375 -9.390625 L 16.984375 0 L 12.0625 0 L 12.0625 -8.0625 C 12.0625 -8.800781 11.820312 -9.445312 11.34375 -10 C 10.875 -10.5625 10.257812 -10.84375 9.5 -10.84375 C 8.757812 -10.84375 8.085938 -10.554688 7.484375 -9.984375 C 6.890625 -9.410156 6.59375 -8.769531 6.59375 -8.0625 L 6.59375 0 Z M 1.671875 0 "/></g></g></g><g fill="#ffffff" fill-opacity="1"><g transform="translate(186.656663, 221.574684)"><g><path d="M 6.3125 -14.265625 L 6.3125 -7.484375 C 6.3125 -6.066406 6.523438 -5.0625 6.953125 -4.46875 C 7.378906 -3.875 8.097656 -3.578125 9.109375 -3.578125 C 10.128906 -3.578125 10.851562 -3.875 11.28125 -4.46875 C 11.707031 -5.0625 11.921875 -6.066406 11.921875 -7.484375 L 11.921875 -14.265625 L 16.84375 -14.265625 L 16.84375 -6.28125 C 16.84375 -3.90625 16.222656 -2.191406 14.984375 -1.140625 C 13.753906 -0.0976562 11.796875 0.421875 9.109375 0.421875 C 6.429688 0.421875 4.472656 -0.0976562 3.234375 -1.140625 C 2.003906 -2.191406 1.390625 -3.90625 1.390625 -6.28125 L 1.390625 -14.265625 Z M 6.3125 -14.265625 "/></g></g></g><g fill="#ffffff" fill-opacity="1"><g transform="translate(202.270546, 221.574684)"><g><path d="M 2.5 -14.265625 L 2.5 -17.296875 C 2.519531 -19.421875 3.019531 -21.125 4 -22.40625 C 4.976562 -23.6875 6.34375 -24.328125 8.09375 -24.328125 C 8.832031 -24.328125 9.539062 -24.21875 10.21875 -24 C 10.894531 -23.789062 11.378906 -23.570312 11.671875 -23.34375 L 12.140625 -23.046875 L 10.421875 -19.5625 C 9.972656 -19.820312 9.484375 -19.953125 8.953125 -19.953125 C 8.335938 -19.953125 7.925781 -19.742188 7.71875 -19.328125 C 7.519531 -18.910156 7.421875 -18.1875 7.421875 -17.15625 L 7.421875 -14.265625 L 10.703125 -14.265625 L 10.703125 -10.5 L 7.421875 -10.5 L 7.421875 0 L 2.5 0 L 2.5 -10.5 L 0.4375 -10.5 L 0.4375 -14.265625 Z M 2.5 -14.265625 "/></g></g></g><g fill="#ffffff" fill-opacity="1"><g transform="translate(210.076789, 221.574684)"><g><path d="M 2.640625 -1.765625 C 1.304688 -3.222656 0.640625 -5.003906 0.640625 -7.109375 C 0.640625 -9.222656 1.304688 -11.007812 2.640625 -12.46875 C 3.972656 -13.9375 5.671875 -14.671875 7.734375 -14.671875 C 9.617188 -14.671875 11.171875 -14.078125 12.390625 -12.890625 L 12.390625 -14.265625 L 17.3125 -14.265625 L 17.3125 0 L 12.453125 0 L 12.453125 -1.609375 L 12.390625 -1.609375 C 11.171875 -0.253906 9.617188 0.421875 7.734375 0.421875 C 5.671875 0.421875 3.972656 -0.304688 2.640625 -1.765625 Z M 6.8125 -9.53125 C 6.175781 -8.90625 5.859375 -8.097656 5.859375 -7.109375 C 5.859375 -6.128906 6.164062 -5.328125 6.78125 -4.703125 C 7.394531 -4.085938 8.203125 -3.78125 9.203125 -3.78125 C 10.160156 -3.78125 10.953125 -4.09375 11.578125 -4.71875 C 12.203125 -5.351562 12.515625 -6.148438 12.515625 -7.109375 C 12.515625 -8.097656 12.191406 -8.90625 11.546875 -9.53125 C 10.910156 -10.164062 10.128906 -10.484375 9.203125 -10.484375 C 8.253906 -10.484375 7.457031 -10.164062 6.8125 -9.53125 Z M 6.8125 -9.53125 "/></g></g></g><g fill="#ffffff" fill-opacity="1"><g transform="translate(226.440867, 221.574684)"><g><path d="M 9.25 -10.640625 C 8.320312 -10.640625 7.523438 -10.296875 6.859375 -9.609375 C 6.191406 -8.929688 5.859375 -8.109375 5.859375 -7.140625 C 5.859375 -6.160156 6.191406 -5.328125 6.859375 -4.640625 C 7.523438 -3.953125 8.320312 -3.609375 9.25 -3.609375 C 9.695312 -3.609375 10.117188 -3.664062 10.515625 -3.78125 C 10.921875 -3.894531 11.210938 -4.003906 11.390625 -4.109375 L 11.640625 -4.28125 L 13.3125 -0.859375 C 13.1875 -0.765625 13.003906 -0.648438 12.765625 -0.515625 C 12.535156 -0.378906 12.007812 -0.191406 11.1875 0.046875 C 10.363281 0.296875 9.476562 0.421875 8.53125 0.421875 C 6.4375 0.421875 4.597656 -0.3125 3.015625 -1.78125 C 1.429688 -3.257812 0.640625 -5.03125 0.640625 -7.09375 C 0.640625 -9.164062 1.429688 -10.945312 3.015625 -12.4375 C 4.597656 -13.925781 6.4375 -14.671875 8.53125 -14.671875 C 9.476562 -14.671875 10.347656 -14.5625 11.140625 -14.34375 C 11.941406 -14.125 12.507812 -13.898438 12.84375 -13.671875 L 13.3125 -13.34375 L 11.640625 -9.984375 C 11.035156 -10.421875 10.238281 -10.640625 9.25 -10.640625 Z M 9.25 -10.640625 "/></g></g></g><g fill="#ffffff" fill-opacity="1"><g transform="translate(237.470189, 221.574684)"><g><path d="M 2.5 -14.265625 L 2.5 -19.5625 L 7.421875 -19.5625 L 7.421875 -14.265625 L 10.421875 -14.265625 L 10.421875 -10.5 L 7.421875 -10.5 L 7.421875 -5.96875 C 7.421875 -4.65625 7.789062 -4 8.53125 -4 C 8.71875 -4 8.910156 -4.035156 9.109375 -4.109375 C 9.316406 -4.179688 9.476562 -4.257812 9.59375 -4.34375 L 9.75 -4.453125 L 10.984375 -0.46875 C 9.921875 0.125 8.710938 0.421875 7.359375 0.421875 C 6.429688 0.421875 5.632812 0.257812 4.96875 -0.0625 C 4.300781 -0.394531 3.796875 -0.832031 3.453125 -1.375 C 3.117188 -1.925781 2.875 -2.5 2.71875 -3.09375 C 2.570312 -3.695312 2.5 -4.34375 2.5 -5.03125 L 2.5 -10.5 L 0.4375 -10.5 L 0.4375 -14.265625 Z M 2.5 -14.265625 "/></g></g></g><g fill="#ffffff" fill-opacity="1"><g transform="translate(245.832135, 221.574684)"><g><path d="M 6.3125 -14.265625 L 6.3125 -7.484375 C 6.3125 -6.066406 6.523438 -5.0625 6.953125 -4.46875 C 7.378906 -3.875 8.097656 -3.578125 9.109375 -3.578125 C 10.128906 -3.578125 10.851562 -3.875 11.28125 -4.46875 C 11.707031 -5.0625 11.921875 -6.066406 11.921875 -7.484375 L 11.921875 -14.265625 L 16.84375 -14.265625 L 16.84375 -6.28125 C 16.84375 -3.90625 16.222656 -2.191406 14.984375 -1.140625 C 13.753906 -0.0976562 11.796875 0.421875 9.109375 0.421875 C 6.429688 0.421875 4.472656 -0.0976562 3.234375 -1.140625 C 2.003906 -2.191406 1.390625 -3.90625 1.390625 -6.28125 L 1.390625 -14.265625 Z M 6.3125 -14.265625 "/></g></g></g><g fill="#ffffff" fill-opacity="1"><g transform="translate(261.446018, 221.574684)"><g><path d="M 1.671875 0 L 1.671875 -14.265625 L 6.59375 -14.265625 L 6.59375 -12.203125 L 6.640625 -12.203125 C 6.679688 -12.273438 6.742188 -12.363281 6.828125 -12.46875 C 6.910156 -12.582031 7.085938 -12.78125 7.359375 -13.0625 C 7.640625 -13.34375 7.9375 -13.59375 8.25 -13.8125 C 8.570312 -14.039062 8.984375 -14.238281 9.484375 -14.40625 C 9.984375 -14.582031 10.488281 -14.671875 11 -14.671875 C 11.539062 -14.671875 12.070312 -14.597656 12.59375 -14.453125 C 13.113281 -14.304688 13.492188 -14.160156 13.734375 -14.015625 L 14.125 -13.78125 L 12.0625 -9.625 C 11.445312 -10.132812 10.59375 -10.390625 9.5 -10.390625 C 8.90625 -10.390625 8.394531 -10.257812 7.96875 -10 C 7.550781 -9.75 7.253906 -9.4375 7.078125 -9.0625 C 6.898438 -8.6875 6.773438 -8.367188 6.703125 -8.109375 C 6.628906 -7.859375 6.59375 -7.65625 6.59375 -7.5 L 6.59375 0 Z M 1.671875 0 "/></g></g></g><g fill="#ffffff" fill-opacity="1"><g transform="translate(272.669833, 221.574684)"><g><path d="M 16.09375 -6.453125 L 5.75 -6.453125 C 5.75 -5.453125 6.070312 -4.707031 6.71875 -4.21875 C 7.375 -3.738281 8.082031 -3.5 8.84375 -3.5 C 9.632812 -3.5 10.257812 -3.601562 10.71875 -3.8125 C 11.1875 -4.03125 11.71875 -4.457031 12.3125 -5.09375 L 15.875 -3.3125 C 14.382812 -0.820312 11.921875 0.421875 8.484375 0.421875 C 6.328125 0.421875 4.476562 -0.3125 2.9375 -1.78125 C 1.40625 -3.257812 0.640625 -5.035156 0.640625 -7.109375 C 0.640625 -9.191406 1.40625 -10.972656 2.9375 -12.453125 C 4.476562 -13.929688 6.328125 -14.671875 8.484375 -14.671875 C 10.742188 -14.671875 12.582031 -14.015625 14 -12.703125 C 15.414062 -11.398438 16.125 -9.535156 16.125 -7.109375 C 16.125 -6.773438 16.113281 -6.554688 16.09375 -6.453125 Z M 5.890625 -9.171875 L 11.3125 -9.171875 C 11.195312 -9.910156 10.90625 -10.476562 10.4375 -10.875 C 9.96875 -11.28125 9.359375 -11.484375 8.609375 -11.484375 C 7.796875 -11.484375 7.148438 -11.269531 6.671875 -10.84375 C 6.191406 -10.414062 5.929688 -9.859375 5.890625 -9.171875 Z M 5.890625 -9.171875 "/></g></g></g><g fill="#ffffff" fill-opacity="1"><g transform="translate(286.81109, 221.574684)"><g><path d="M 1.671875 0 L 1.671875 -14.265625 L 6.59375 -14.265625 L 6.59375 -12.203125 L 6.640625 -12.203125 C 6.679688 -12.273438 6.742188 -12.363281 6.828125 -12.46875 C 6.910156 -12.582031 7.085938 -12.78125 7.359375 -13.0625 C 7.640625 -13.34375 7.9375 -13.59375 8.25 -13.8125 C 8.570312 -14.039062 8.984375 -14.238281 9.484375 -14.40625 C 9.984375 -14.582031 10.488281 -14.671875 11 -14.671875 C 11.539062 -14.671875 12.070312 -14.597656 12.59375 -14.453125 C 13.113281 -14.304688 13.492188 -14.160156 13.734375 -14.015625 L 14.125 -13.78125 L 12.0625 -9.625 C 11.445312 -10.132812 10.59375 -10.390625 9.5 -10.390625 C 8.90625 -10.390625 8.394531 -10.257812 7.96875 -10 C 7.550781 -9.75 7.253906 -9.4375 7.078125 -9.0625 C 6.898438 -8.6875 6.773438 -8.367188 6.703125 -8.109375 C 6.628906 -7.859375 6.59375 -7.65625 6.59375 -7.5 L 6.59375 0 Z M 1.671875 0 "/></g></g></g></svg>