<svg xmlns="http://www.w3.org/2000/svg" xmlns:xlink="http://www.w3.org/1999/xlink" width="2560" zoomAndPan="magnify" viewBox="0 0 1920 1247.999941" height="1664" preserveAspectRatio="xMidYMid meet" version="1.0"><defs><g/><clipPath id="9caa82f0e5"><path d="M 0.480469 0.878906 L 1788.480469 0.878906 L 1788.480469 401 L 0.480469 401 Z M 0.480469 0.878906 " clip-rule="nonzero"/></clipPath><clipPath id="3515601662"><rect x="0" width="1789" y="0" height="401"/></clipPath><clipPath id="399571ca46"><rect x="0" width="1789" y="0" height="492"/></clipPath></defs><g transform="matrix(1, 0, 0, 1, 60, 374)"><g clip-path="url(#399571ca46)"><g clip-path="url(#9caa82f0e5)"><g transform="matrix(1, 0, 0, 1, 0, -0.000000000000056843)"><g clip-path="url(#3515601662)"><g fill="#2b2b2b" fill-opacity="1"><g transform="translate(0.887164, 288.743103)"><g><path d="M 115.703125 -267.015625 C 129.898438 -267.015625 143.78125 -264.945312 157.34375 -260.8125 C 170.90625 -256.6875 180.972656 -252.609375 187.546875 -248.578125 L 197.078125 -242.21875 L 172.921875 -194.546875 C 171.015625 -195.816406 168.363281 -197.457031 164.96875 -199.46875 C 161.582031 -201.476562 155.226562 -204.175781 145.90625 -207.5625 C 136.582031 -210.957031 127.894531 -212.65625 119.84375 -212.65625 C 109.882812 -212.65625 102.203125 -210.535156 96.796875 -206.296875 C 91.390625 -202.054688 88.6875 -196.335938 88.6875 -189.140625 C 88.6875 -185.535156 89.957031 -182.195312 92.5 -179.125 C 95.039062 -176.050781 99.382812 -172.765625 105.53125 -169.265625 C 111.675781 -165.773438 117.078125 -162.96875 121.734375 -160.84375 C 126.398438 -158.726562 133.609375 -155.550781 143.359375 -151.3125 C 160.316406 -144.101562 174.78125 -134.300781 186.75 -121.90625 C 198.726562 -109.507812 204.71875 -95.46875 204.71875 -79.78125 C 204.71875 -64.738281 202.015625 -51.597656 196.609375 -40.359375 C 191.203125 -29.128906 183.78125 -20.335938 174.34375 -13.984375 C 164.914062 -7.628906 154.476562 -2.914062 143.03125 0.15625 C 131.59375 3.226562 119.203125 4.765625 105.859375 4.765625 C 94.410156 4.765625 83.175781 3.597656 72.15625 1.265625 C 61.132812 -1.054688 51.914062 -3.96875 44.5 -7.46875 C 37.082031 -10.96875 30.40625 -14.410156 24.46875 -17.796875 C 18.539062 -21.191406 14.195312 -24.054688 11.4375 -26.390625 L 7.3125 -29.875 L 37.1875 -80.109375 C 39.726562 -77.984375 43.222656 -75.28125 47.671875 -72 C 52.128906 -68.71875 60.023438 -64.320312 71.359375 -58.8125 C 82.703125 -53.300781 92.71875 -50.546875 101.40625 -50.546875 C 126.625 -50.546875 139.234375 -59.128906 139.234375 -76.296875 C 139.234375 -79.890625 138.332031 -83.222656 136.53125 -86.296875 C 134.726562 -89.367188 131.546875 -92.441406 126.984375 -95.515625 C 122.429688 -98.585938 118.40625 -101.023438 114.90625 -102.828125 C 111.414062 -104.628906 105.695312 -107.382812 97.75 -111.09375 C 89.800781 -114.800781 83.921875 -117.609375 80.109375 -119.515625 C 64.210938 -127.359375 51.921875 -137.160156 43.234375 -148.921875 C 34.546875 -160.679688 30.203125 -173.34375 30.203125 -186.90625 C 30.203125 -210.425781 38.890625 -229.65625 56.265625 -244.59375 C 73.640625 -259.539062 93.453125 -267.015625 115.703125 -267.015625 Z M 115.703125 -267.015625 "/></g></g></g><g fill="#2b2b2b" fill-opacity="1"><g transform="translate(184.612394, 288.743103)"><g><path d="M 28.609375 -163.0625 L 28.609375 -223.78125 L 84.875 -223.78125 L 84.875 -163.0625 L 119.203125 -163.0625 L 119.203125 -120.15625 L 84.875 -120.15625 L 84.875 -68.34375 C 84.875 -53.300781 89.113281 -45.78125 97.59375 -45.78125 C 99.707031 -45.78125 101.929688 -46.203125 104.265625 -47.046875 C 106.597656 -47.890625 108.398438 -48.738281 109.671875 -49.59375 L 111.578125 -50.859375 L 125.5625 -5.40625 C 113.476562 1.375 99.703125 4.765625 84.234375 4.765625 C 73.640625 4.765625 64.523438 2.910156 56.890625 -0.796875 C 49.265625 -4.503906 43.488281 -9.484375 39.5625 -15.734375 C 35.644531 -21.984375 32.835938 -28.550781 31.140625 -35.4375 C 29.453125 -42.332031 28.609375 -49.695312 28.609375 -57.53125 L 28.609375 -120.15625 L 5.09375 -120.15625 L 5.09375 -163.0625 Z M 28.609375 -163.0625 "/></g></g></g><g fill="#2b2b2b" fill-opacity="1"><g transform="translate(280.288448, 288.743103)"><g><path d="M 19.078125 0 L 19.078125 -163.0625 L 75.34375 -163.0625 L 75.34375 -139.546875 L 75.96875 -139.546875 C 76.394531 -140.390625 77.082031 -141.445312 78.03125 -142.71875 C 78.988281 -144 81.054688 -146.226562 84.234375 -149.40625 C 87.410156 -152.582031 90.800781 -155.441406 94.40625 -157.984375 C 98.007812 -160.523438 102.671875 -162.800781 108.390625 -164.8125 C 114.117188 -166.832031 119.945312 -167.84375 125.875 -167.84375 C 132.019531 -167.84375 138.054688 -166.992188 143.984375 -165.296875 C 149.921875 -163.597656 154.269531 -161.898438 157.03125 -160.203125 L 161.484375 -157.671875 L 137.953125 -109.984375 C 130.960938 -115.921875 121.21875 -118.890625 108.71875 -118.890625 C 101.9375 -118.890625 96.109375 -117.40625 91.234375 -114.4375 C 86.359375 -111.46875 82.910156 -107.863281 80.890625 -103.625 C 78.878906 -99.382812 77.453125 -95.78125 76.609375 -92.8125 C 75.765625 -89.851562 75.34375 -87.523438 75.34375 -85.828125 L 75.34375 0 Z M 19.078125 0 "/></g></g></g><g fill="#2b2b2b" fill-opacity="1"><g transform="translate(408.704808, 288.743103)"><g><path d="M 184.046875 -73.75 L 65.796875 -73.75 C 65.796875 -62.300781 69.503906 -53.820312 76.921875 -48.3125 C 84.335938 -42.800781 92.390625 -40.046875 101.078125 -40.046875 C 110.191406 -40.046875 117.394531 -41.265625 122.6875 -43.703125 C 127.988281 -46.140625 134.03125 -50.960938 140.8125 -58.171875 L 181.5 -37.828125 C 164.550781 -9.429688 136.367188 4.765625 96.953125 4.765625 C 72.367188 4.765625 51.28125 -3.65625 33.6875 -20.5 C 16.101562 -37.351562 7.3125 -57.644531 7.3125 -81.375 C 7.3125 -105.113281 16.101562 -125.457031 33.6875 -142.40625 C 51.28125 -159.363281 72.367188 -167.84375 96.953125 -167.84375 C 122.804688 -167.84375 143.835938 -160.367188 160.046875 -145.421875 C 176.265625 -130.484375 184.375 -109.132812 184.375 -81.375 C 184.375 -77.5625 184.265625 -75.019531 184.046875 -73.75 Z M 67.390625 -104.90625 L 129.375 -104.90625 C 128.101562 -113.375 124.765625 -119.882812 119.359375 -124.4375 C 113.953125 -129 107.015625 -131.28125 98.546875 -131.28125 C 89.222656 -131.28125 81.804688 -128.84375 76.296875 -123.96875 C 70.785156 -119.09375 67.816406 -112.738281 67.390625 -104.90625 Z M 67.390625 -104.90625 "/></g></g></g><g fill="#2b2b2b" fill-opacity="1"><g transform="translate(570.497186, 288.743103)"><g><path d="M 184.046875 -73.75 L 65.796875 -73.75 C 65.796875 -62.300781 69.503906 -53.820312 76.921875 -48.3125 C 84.335938 -42.800781 92.390625 -40.046875 101.078125 -40.046875 C 110.191406 -40.046875 117.394531 -41.265625 122.6875 -43.703125 C 127.988281 -46.140625 134.03125 -50.960938 140.8125 -58.171875 L 181.5 -37.828125 C 164.550781 -9.429688 136.367188 4.765625 96.953125 4.765625 C 72.367188 4.765625 51.28125 -3.65625 33.6875 -20.5 C 16.101562 -37.351562 7.3125 -57.644531 7.3125 -81.375 C 7.3125 -105.113281 16.101562 -125.457031 33.6875 -142.40625 C 51.28125 -159.363281 72.367188 -167.84375 96.953125 -167.84375 C 122.804688 -167.84375 143.835938 -160.367188 160.046875 -145.421875 C 176.265625 -130.484375 184.375 -109.132812 184.375 -81.375 C 184.375 -77.5625 184.265625 -75.019531 184.046875 -73.75 Z M 67.390625 -104.90625 L 129.375 -104.90625 C 128.101562 -113.375 124.765625 -119.882812 119.359375 -124.4375 C 113.953125 -129 107.015625 -131.28125 98.546875 -131.28125 C 89.222656 -131.28125 81.804688 -128.84375 76.296875 -123.96875 C 70.785156 -119.09375 67.816406 -112.738281 67.390625 -104.90625 Z M 67.390625 -104.90625 "/></g></g></g><g fill="#2b2b2b" fill-opacity="1"><g transform="translate(732.289564, 288.743103)"><g><path d="M 28.609375 -163.0625 L 28.609375 -223.78125 L 84.875 -223.78125 L 84.875 -163.0625 L 119.203125 -163.0625 L 119.203125 -120.15625 L 84.875 -120.15625 L 84.875 -68.34375 C 84.875 -53.300781 89.113281 -45.78125 97.59375 -45.78125 C 99.707031 -45.78125 101.929688 -46.203125 104.265625 -47.046875 C 106.597656 -47.890625 108.398438 -48.738281 109.671875 -49.59375 L 111.578125 -50.859375 L 125.5625 -5.40625 C 113.476562 1.375 99.703125 4.765625 84.234375 4.765625 C 73.640625 4.765625 64.523438 2.910156 56.890625 -0.796875 C 49.265625 -4.503906 43.488281 -9.484375 39.5625 -15.734375 C 35.644531 -21.984375 32.835938 -28.550781 31.140625 -35.4375 C 29.453125 -42.332031 28.609375 -49.695312 28.609375 -57.53125 L 28.609375 -120.15625 L 5.09375 -120.15625 L 5.09375 -163.0625 Z M 28.609375 -163.0625 "/></g></g></g><g fill="#2b2b2b" fill-opacity="1"><g transform="translate(827.965618, 288.743103)"><g><path d="M 170.703125 -262.25 L 170.703125 -209.796875 L 78.828125 -209.796875 L 78.828125 -157.671875 L 163.703125 -157.671875 L 163.703125 -105.21875 L 78.828125 -105.21875 L 78.828125 0 L 19.078125 0 L 19.078125 -262.25 Z M 170.703125 -262.25 "/></g></g></g><g fill="#2b2b2b" fill-opacity="1"><g transform="translate(978.31483, 288.743103)"><g><path d="M 19.078125 0 L 19.078125 -163.0625 L 75.34375 -163.0625 L 75.34375 -139.546875 L 75.96875 -139.546875 C 76.394531 -140.390625 77.082031 -141.445312 78.03125 -142.71875 C 78.988281 -144 81.054688 -146.226562 84.234375 -149.40625 C 87.410156 -152.582031 90.800781 -155.441406 94.40625 -157.984375 C 98.007812 -160.523438 102.671875 -162.800781 108.390625 -164.8125 C 114.117188 -166.832031 119.945312 -167.84375 125.875 -167.84375 C 132.019531 -167.84375 138.054688 -166.992188 143.984375 -165.296875 C 149.921875 -163.597656 154.269531 -161.898438 157.03125 -160.203125 L 161.484375 -157.671875 L 137.953125 -109.984375 C 130.960938 -115.921875 121.21875 -118.890625 108.71875 -118.890625 C 101.9375 -118.890625 96.109375 -117.40625 91.234375 -114.4375 C 86.359375 -111.46875 82.910156 -107.863281 80.890625 -103.625 C 78.878906 -99.382812 77.453125 -95.78125 76.609375 -92.8125 C 75.765625 -89.851562 75.34375 -87.523438 75.34375 -85.828125 L 75.34375 0 Z M 19.078125 0 "/></g></g></g><g fill="#2b2b2b" fill-opacity="1"><g transform="translate(1106.731245, 288.743103)"><g><path d="M 184.046875 -73.75 L 65.796875 -73.75 C 65.796875 -62.300781 69.503906 -53.820312 76.921875 -48.3125 C 84.335938 -42.800781 92.390625 -40.046875 101.078125 -40.046875 C 110.191406 -40.046875 117.394531 -41.265625 122.6875 -43.703125 C 127.988281 -46.140625 134.03125 -50.960938 140.8125 -58.171875 L 181.5 -37.828125 C 164.550781 -9.429688 136.367188 4.765625 96.953125 4.765625 C 72.367188 4.765625 51.28125 -3.65625 33.6875 -20.5 C 16.101562 -37.351562 7.3125 -57.644531 7.3125 -81.375 C 7.3125 -105.113281 16.101562 -125.457031 33.6875 -142.40625 C 51.28125 -159.363281 72.367188 -167.84375 96.953125 -167.84375 C 122.804688 -167.84375 143.835938 -160.367188 160.046875 -145.421875 C 176.265625 -130.484375 184.375 -109.132812 184.375 -81.375 C 184.375 -77.5625 184.265625 -75.019531 184.046875 -73.75 Z M 67.390625 -104.90625 L 129.375 -104.90625 C 128.101562 -113.375 124.765625 -119.882812 119.359375 -124.4375 C 113.953125 -129 107.015625 -131.28125 98.546875 -131.28125 C 89.222656 -131.28125 81.804688 -128.84375 76.296875 -123.96875 C 70.785156 -119.09375 67.816406 -112.738281 67.390625 -104.90625 Z M 67.390625 -104.90625 "/></g></g></g><g fill="#2b2b2b" fill-opacity="1"><g transform="translate(1268.523623, 288.743103)"><g><path d="M 30.1875 -20.1875 C 14.9375 -36.820312 7.3125 -57.21875 7.3125 -81.375 C 7.3125 -105.53125 14.9375 -125.976562 30.1875 -142.71875 C 45.445312 -159.46875 64.84375 -167.84375 88.375 -167.84375 C 109.988281 -167.84375 127.785156 -161.0625 141.765625 -147.5 L 141.765625 -163.0625 L 198.03125 -163.0625 L 198.03125 0 L 142.40625 0 L 142.40625 -18.4375 L 141.765625 -18.4375 C 127.785156 -2.96875 109.988281 4.765625 88.375 4.765625 C 64.84375 4.765625 45.445312 -3.550781 30.1875 -20.1875 Z M 78.03125 -109.03125 C 70.726562 -101.820312 67.078125 -92.601562 67.078125 -81.375 C 67.078125 -70.144531 70.570312 -60.976562 77.5625 -53.875 C 84.550781 -46.78125 93.769531 -43.234375 105.21875 -43.234375 C 116.238281 -43.234375 125.296875 -46.832031 132.390625 -54.03125 C 139.492188 -61.238281 143.046875 -70.351562 143.046875 -81.375 C 143.046875 -92.601562 139.390625 -101.820312 132.078125 -109.03125 C 124.765625 -116.238281 115.8125 -119.84375 105.21875 -119.84375 C 94.40625 -119.84375 85.34375 -116.238281 78.03125 -109.03125 Z M 78.03125 -109.03125 "/></g></g></g><g fill="#2b2b2b" fill-opacity="1"><g transform="translate(1455.745287, 288.743103)"><g><path d="M 205.34375 -163.0625 L 127.78125 -85.1875 L 212.96875 0 L 140.5 0 L 75.34375 -65.171875 L 75.34375 0 L 19.078125 0 L 19.078125 -273.375 L 75.34375 -273.375 L 75.34375 -106.171875 L 132.234375 -163.0625 Z M 205.34375 -163.0625 "/></g></g></g><g fill="#2b2b2b" fill-opacity="1"><g transform="translate(1631.20601, 288.743103)"><g/></g></g><g fill="#2b2b2b" fill-opacity="1"><g transform="translate(1688.102207, 288.743103)"><g><path d="M 55.3125 -68.03125 C 65.476562 -68.03125 74.109375 -64.476562 81.203125 -57.375 C 88.304688 -50.28125 91.859375 -41.644531 91.859375 -31.46875 C 91.859375 -21.507812 88.304688 -12.976562 81.203125 -5.875 C 74.109375 1.21875 65.476562 4.765625 55.3125 4.765625 C 45.351562 4.765625 36.820312 1.21875 29.71875 -5.875 C 22.625 -12.976562 19.078125 -21.507812 19.078125 -31.46875 C 19.078125 -41.644531 22.625 -50.28125 29.71875 -57.375 C 36.820312 -64.476562 45.351562 -68.03125 55.3125 -68.03125 Z M 55.3125 -68.03125 "/></g></g></g></g></g></g><g fill="#2b2b2b" fill-opacity="1"><g transform="translate(455.56682, 435.420056)"><g><path d="M 118.03125 0 L 111.828125 -77.796875 L 111.03125 -77.796875 L 84.15625 -0.796875 L 66.328125 -0.796875 L 39.453125 -77.796875 L 38.65625 -77.796875 L 32.453125 0 L 2.546875 0 L 14.3125 -131.234375 L 46.125 -131.234375 L 75.25 -55.515625 L 104.359375 -131.234375 L 136.171875 -131.234375 L 147.9375 0 Z M 118.03125 0 "/></g></g></g><g fill="#2b2b2b" fill-opacity="1"><g transform="translate(591.08869, 435.420056)"><g><path d="M 15.109375 -10.09375 C 7.472656 -18.425781 3.65625 -28.632812 3.65625 -40.71875 C 3.65625 -52.8125 7.472656 -63.046875 15.109375 -71.421875 C 22.742188 -79.804688 32.445312 -84 44.21875 -84 C 55.039062 -84 63.953125 -80.601562 70.953125 -73.8125 L 70.953125 -81.609375 L 99.109375 -81.609375 L 99.109375 0 L 71.265625 0 L 71.265625 -9.21875 L 70.953125 -9.21875 C 63.953125 -1.476562 55.039062 2.390625 44.21875 2.390625 C 32.445312 2.390625 22.742188 -1.769531 15.109375 -10.09375 Z M 39.046875 -54.5625 C 35.390625 -50.957031 33.5625 -46.34375 33.5625 -40.71875 C 33.5625 -35.101562 35.3125 -30.519531 38.8125 -26.96875 C 42.3125 -23.414062 46.925781 -21.640625 52.65625 -21.640625 C 58.164062 -21.640625 62.695312 -23.441406 66.25 -27.046875 C 69.800781 -30.648438 71.578125 -35.207031 71.578125 -40.71875 C 71.578125 -46.34375 69.75 -50.957031 66.09375 -54.5625 C 62.4375 -58.164062 57.957031 -59.96875 52.65625 -59.96875 C 47.25 -59.96875 42.710938 -58.164062 39.046875 -54.5625 Z M 39.046875 -54.5625 "/></g></g></g><g fill="#2b2b2b" fill-opacity="1"><g transform="translate(684.77647, 435.420056)"><g><path d="M 9.546875 0 L 9.546875 -81.609375 L 37.703125 -81.609375 L 37.703125 -69.828125 L 38.015625 -69.828125 C 38.234375 -70.253906 38.578125 -70.785156 39.046875 -71.421875 C 39.523438 -72.054688 40.5625 -73.171875 42.15625 -74.765625 C 43.75 -76.359375 45.445312 -77.789062 47.25 -79.0625 C 49.050781 -80.332031 51.382812 -81.472656 54.25 -82.484375 C 57.113281 -83.492188 60.03125 -84 63 -84 C 66.070312 -84 69.09375 -83.570312 72.0625 -82.71875 C 75.03125 -81.875 77.203125 -81.023438 78.578125 -80.171875 L 80.8125 -78.90625 L 69.046875 -55.046875 C 65.546875 -58.015625 60.664062 -59.5 54.40625 -59.5 C 51.007812 -59.5 48.09375 -58.753906 45.65625 -57.265625 C 43.21875 -55.785156 41.492188 -53.984375 40.484375 -51.859375 C 39.472656 -49.734375 38.753906 -47.925781 38.328125 -46.4375 C 37.910156 -44.957031 37.703125 -43.796875 37.703125 -42.953125 L 37.703125 0 Z M 9.546875 0 "/></g></g></g><g fill="#2b2b2b" fill-opacity="1"><g transform="translate(749.037197, 435.420056)"><g><path d="M 102.765625 -81.609375 L 63.953125 -42.640625 L 106.578125 0 L 70.3125 0 L 37.703125 -32.609375 L 37.703125 0 L 9.546875 0 L 9.546875 -136.8125 L 37.703125 -136.8125 L 37.703125 -53.125 L 66.171875 -81.609375 Z M 102.765625 -81.609375 "/></g></g></g><g fill="#2b2b2b" fill-opacity="1"><g transform="translate(836.839557, 435.420056)"><g><path d="M 92.109375 -36.90625 L 32.921875 -36.90625 C 32.921875 -31.175781 34.773438 -26.929688 38.484375 -24.171875 C 42.203125 -21.421875 46.238281 -20.046875 50.59375 -20.046875 C 55.144531 -20.046875 58.742188 -20.65625 61.390625 -21.875 C 64.046875 -23.09375 67.070312 -25.503906 70.46875 -29.109375 L 90.828125 -18.9375 C 82.347656 -4.71875 68.242188 2.390625 48.515625 2.390625 C 36.210938 2.390625 25.660156 -1.820312 16.859375 -10.25 C 8.054688 -18.6875 3.65625 -28.84375 3.65625 -40.71875 C 3.65625 -52.601562 8.054688 -62.785156 16.859375 -71.265625 C 25.660156 -79.753906 36.210938 -84 48.515625 -84 C 61.453125 -84 71.976562 -80.257812 80.09375 -72.78125 C 88.207031 -65.300781 92.265625 -54.613281 92.265625 -40.71875 C 92.265625 -38.8125 92.210938 -37.539062 92.109375 -36.90625 Z M 33.71875 -52.5 L 64.75 -52.5 C 64.113281 -56.738281 62.441406 -60 59.734375 -62.28125 C 57.023438 -64.5625 53.550781 -65.703125 49.3125 -65.703125 C 44.644531 -65.703125 40.929688 -64.476562 38.171875 -62.03125 C 35.421875 -59.59375 33.9375 -56.414062 33.71875 -52.5 Z M 33.71875 -52.5 "/></g></g></g><g fill="#2b2b2b" fill-opacity="1"><g transform="translate(917.802109, 435.420056)"><g><path d="M 14.3125 -81.609375 L 14.3125 -111.984375 L 42.46875 -111.984375 L 42.46875 -81.609375 L 59.65625 -81.609375 L 59.65625 -60.125 L 42.46875 -60.125 L 42.46875 -34.203125 C 42.46875 -26.671875 44.59375 -22.90625 48.84375 -22.90625 C 49.894531 -22.90625 51.003906 -23.117188 52.171875 -23.546875 C 53.335938 -23.972656 54.238281 -24.394531 54.875 -24.8125 L 55.84375 -25.453125 L 62.828125 -2.703125 C 56.785156 0.691406 49.894531 2.390625 42.15625 2.390625 C 36.851562 2.390625 32.289062 1.460938 28.46875 -0.390625 C 24.65625 -2.253906 21.765625 -4.75 19.796875 -7.875 C 17.835938 -11 16.429688 -14.285156 15.578125 -17.734375 C 14.734375 -21.179688 14.3125 -24.867188 14.3125 -28.796875 L 14.3125 -60.125 L 2.546875 -60.125 L 2.546875 -81.609375 Z M 14.3125 -81.609375 "/></g></g></g><g fill="#2b2b2b" fill-opacity="1"><g transform="translate(965.679178, 435.420056)"><g><path d="M 93.53125 -71.5 C 101.164062 -63.175781 104.984375 -52.96875 104.984375 -40.875 C 104.984375 -28.789062 101.164062 -18.554688 93.53125 -10.171875 C 85.894531 -1.796875 76.191406 2.390625 64.421875 2.390625 C 53.609375 2.390625 44.703125 -1.003906 37.703125 -7.796875 L 37.703125 41.359375 L 9.546875 41.359375 L 9.546875 -81.609375 L 37.390625 -81.609375 L 37.390625 -72.375 L 37.703125 -72.375 C 44.703125 -80.125 53.609375 -84 64.421875 -84 C 76.191406 -84 85.894531 -79.832031 93.53125 -71.5 Z M 69.59375 -27.046875 C 73.25 -30.648438 75.078125 -35.257812 75.078125 -40.875 C 75.078125 -46.5 73.328125 -51.085938 69.828125 -54.640625 C 66.328125 -58.191406 61.71875 -59.96875 56 -59.96875 C 50.476562 -59.96875 45.941406 -58.164062 42.390625 -54.5625 C 38.835938 -50.957031 37.0625 -46.398438 37.0625 -40.890625 C 37.0625 -35.265625 38.890625 -30.648438 42.546875 -27.046875 C 46.210938 -23.441406 50.695312 -21.640625 56 -21.640625 C 61.40625 -21.640625 65.9375 -23.441406 69.59375 -27.046875 Z M 69.59375 -27.046875 "/></g></g></g><g fill="#2b2b2b" fill-opacity="1"><g transform="translate(1059.366935, 435.420056)"><g><path d="M 9.546875 0 L 9.546875 -136.8125 L 37.703125 -136.8125 L 37.703125 0 Z M 9.546875 0 "/></g></g></g><g fill="#2b2b2b" fill-opacity="1"><g transform="translate(1091.655614, 435.420056)"><g><path d="M 15.109375 -10.09375 C 7.472656 -18.425781 3.65625 -28.632812 3.65625 -40.71875 C 3.65625 -52.8125 7.472656 -63.046875 15.109375 -71.421875 C 22.742188 -79.804688 32.445312 -84 44.21875 -84 C 55.039062 -84 63.953125 -80.601562 70.953125 -73.8125 L 70.953125 -81.609375 L 99.109375 -81.609375 L 99.109375 0 L 71.265625 0 L 71.265625 -9.21875 L 70.953125 -9.21875 C 63.953125 -1.476562 55.039062 2.390625 44.21875 2.390625 C 32.445312 2.390625 22.742188 -1.769531 15.109375 -10.09375 Z M 39.046875 -54.5625 C 35.390625 -50.957031 33.5625 -46.34375 33.5625 -40.71875 C 33.5625 -35.101562 35.3125 -30.519531 38.8125 -26.96875 C 42.3125 -23.414062 46.925781 -21.640625 52.65625 -21.640625 C 58.164062 -21.640625 62.695312 -23.441406 66.25 -27.046875 C 69.800781 -30.648438 71.578125 -35.207031 71.578125 -40.71875 C 71.578125 -46.34375 69.75 -50.957031 66.09375 -54.5625 C 62.4375 -58.164062 57.957031 -59.96875 52.65625 -59.96875 C 47.25 -59.96875 42.710938 -58.164062 39.046875 -54.5625 Z M 39.046875 -54.5625 "/></g></g></g><g fill="#2b2b2b" fill-opacity="1"><g transform="translate(1185.343418, 435.420056)"><g><path d="M 52.96875 -60.921875 C 47.664062 -60.921875 43.101562 -58.957031 39.28125 -55.03125 C 35.46875 -51.113281 33.5625 -46.398438 33.5625 -40.890625 C 33.5625 -35.265625 35.46875 -30.488281 39.28125 -26.5625 C 43.101562 -22.644531 47.664062 -20.6875 52.96875 -20.6875 C 55.519531 -20.6875 57.929688 -21.003906 60.203125 -21.640625 C 62.484375 -22.273438 64.15625 -22.910156 65.21875 -23.546875 L 66.65625 -24.5 L 76.203125 -4.9375 C 75.453125 -4.40625 74.414062 -3.738281 73.09375 -2.9375 C 71.769531 -2.144531 68.75 -1.0625 64.03125 0.3125 C 59.3125 1.695312 54.25 2.390625 48.84375 2.390625 C 36.851562 2.390625 26.320312 -1.820312 17.25 -10.25 C 8.1875 -18.6875 3.65625 -28.789062 3.65625 -40.5625 C 3.65625 -52.4375 8.1875 -62.644531 17.25 -71.1875 C 26.320312 -79.726562 36.851562 -84 48.84375 -84 C 54.25 -84 59.226562 -83.359375 63.78125 -82.078125 C 68.34375 -80.804688 71.582031 -79.535156 73.5 -78.265625 L 76.203125 -76.359375 L 66.65625 -57.109375 C 63.15625 -59.648438 58.59375 -60.921875 52.96875 -60.921875 Z M 52.96875 -60.921875 "/></g></g></g><g fill="#2b2b2b" fill-opacity="1"><g transform="translate(1248.490685, 435.420056)"><g><path d="M 92.109375 -36.90625 L 32.921875 -36.90625 C 32.921875 -31.175781 34.773438 -26.929688 38.484375 -24.171875 C 42.203125 -21.421875 46.238281 -20.046875 50.59375 -20.046875 C 55.144531 -20.046875 58.742188 -20.65625 61.390625 -21.875 C 64.046875 -23.09375 67.070312 -25.503906 70.46875 -29.109375 L 90.828125 -18.9375 C 82.347656 -4.71875 68.242188 2.390625 48.515625 2.390625 C 36.210938 2.390625 25.660156 -1.820312 16.859375 -10.25 C 8.054688 -18.6875 3.65625 -28.84375 3.65625 -40.71875 C 3.65625 -52.601562 8.054688 -62.785156 16.859375 -71.265625 C 25.660156 -79.753906 36.210938 -84 48.515625 -84 C 61.453125 -84 71.976562 -80.257812 80.09375 -72.78125 C 88.207031 -65.300781 92.265625 -54.613281 92.265625 -40.71875 C 92.265625 -38.8125 92.210938 -37.539062 92.109375 -36.90625 Z M 33.71875 -52.5 L 64.75 -52.5 C 64.113281 -56.738281 62.441406 -60 59.734375 -62.28125 C 57.023438 -64.5625 53.550781 -65.703125 49.3125 -65.703125 C 44.644531 -65.703125 40.929688 -64.476562 38.171875 -62.03125 C 35.421875 -59.59375 33.9375 -56.414062 33.71875 -52.5 Z M 33.71875 -52.5 "/></g></g></g></g></g></svg>